<svg xmlns="http://www.w3.org/2000/svg" version="1.1" xmlns:xlink="http://www.w3.org/1999/xlink" xmlns:svgjs="http://svgjs.dev/svgjs" width="512" height="512"><svg version="1.1" width="512" height="512" id="SvgjsSvg1019" sodipodi:docname="favicon.svg" inkscape:version="1.3.2 (091e20e, 2023-11-25, custom)" xmlns:inkscape="http://www.inkscape.org/namespaces/inkscape" xmlns:sodipodi="http://sodipodi.sourceforge.net/DTD/sodipodi-0.dtd" xmlns="http://www.w3.org/2000/svg" xmlns:svg="http://www.w3.org/2000/svg">
  <defs id="SvgjsDefs1018"></defs>
  <sodipodi:namedview id="SvgjsSodipodi:namedview1017" pagecolor="#ffffff" bordercolor="#000000" borderopacity="0.25" inkscape:showpageshadow="2" inkscape:pageopacity="0.0" inkscape:pagecheckerboard="0" inkscape:deskcolor="#d1d1d1" inkscape:zoom="1.5878906" inkscape:cx="176.01968" inkscape:cy="256" inkscape:window-width="1920" inkscape:window-height="1009" inkscape:window-x="-8" inkscape:window-y="-8" inkscape:window-maximized="1" inkscape:current-layer="svg2"></sodipodi:namedview>
  <svg viewBox="0 0 384 512" version="1.1" id="SvgjsSvg1016" width="100%" height="100%">
    <!--!Font Awesome Free 6.6.0 by @fontawesome - https://fontawesome.com License - https://fontawesome.com/license/free Copyright 2024 Fonticons, Inc.-->
    <path d="M 297.2,248.9 C 311.6,228.3 320,203.2 320,176 320,105.3 262.7,48 192,48 121.3,48 64,105.3 64,176 c 0,27.2 8.4,52.3 22.8,72.9 3.7,5.3 8.1,11.3 12.8,17.7 0,0 0,0 0,0 12.9,17.7 28.3,38.9 39.8,59.8 10.4,19 15.7,38.8 18.3,57.5 L 109,384 c -2.2,-12 -5.9,-23.7 -11.8,-34.5 -9.9,-18 -22.2,-34.9 -34.5,-51.8 0,0 0,0 0,0 0,0 0,0 0,0 C 57.5,290.6 52.3,283.5 47.3,276.3 27.6,247.9 16,213.3 16,176 16,78.8 94.8,0 192,0 c 97.2,0 176,78.8 176,176 0,37.3 -11.6,71.9 -31.4,100.3 -5,7.2 -10.2,14.3 -15.4,21.4 0,0 0,0 0,0 0,0 0,0 0,0 -12.3,16.8 -24.6,33.7 -34.5,51.8 -5.9,10.8 -9.6,22.5 -11.8,34.5 h -48.6 c 2.6,-18.7 7.9,-38.6 18.3,-57.5 11.5,-20.9 26.9,-42.1 39.8,-59.8 0,0 0,0 0,0 0,0 0,0 0,0 0,0 0,0 0,0 4.7,-6.4 9,-12.4 12.7,-17.7 z M 192,128 c -26.5,0 -48,21.5 -48,48 0,8.8 -7.2,16 -16,16 -8.8,0 -16,-7.2 -16,-16 0,-44.2 35.8,-80 80,-80 8.8,0 16,7.2 16,16 0,8.8 -7.2,16 -16,16 z m 0,384 c -44.2,0 -80,-35.8 -80,-80 v -16 h 160 v 16 c 0,44.2 -35.8,80 -80,80 z" id="SvgjsPath1015"></path>
  </svg>
  <style id="SvgjsStyle1014">@media (prefers-color-scheme: light) { :root { filter: contrast(1) brightness(1); } }
@media (prefers-color-scheme: dark) { :root { filter: invert(100%); } }
</style>
</svg><style>@media (prefers-color-scheme: light) { :root { filter: none; } }
@media (prefers-color-scheme: dark) { :root { filter: invert(100%); } }
</style></svg>